<svg width="21" height="22" viewBox="0 0 21 22" fill="none" xmlns="http://www.w3.org/2000/svg">
<path d="M18.4611 20.3499C17.4835 21.3275 16.1799 21.8163 14.8221 21.8163C13.4643 21.762 12.1608 21.2189 11.2375 20.1869L9.49946 18.286C8.19595 16.8739 7.81576 14.9729 8.30458 13.1806L11.3461 16.4394L12.2694 17.3627L13.1384 18.286C14.1161 19.3179 15.7454 19.3722 16.7774 18.3946C16.9946 18.1231 17.2119 17.9058 17.3748 17.5799C17.4835 17.254 17.5921 16.9282 17.5921 16.6023C17.5921 16.2764 17.5378 15.8962 17.4291 15.5703C17.3205 15.2445 17.1033 14.9729 16.886 14.7013L16.017 13.7237L12.1065 9.4873C13.8445 9.10711 15.6911 9.54162 16.9946 10.9538L18.787 12.8547C19.7103 13.8866 20.2534 15.2445 20.1991 16.6023C20.0362 18.0687 19.4387 19.3722 18.4611 20.3499ZM6.02344 8.88986L12.2151 15.5703C12.7039 16.1135 13.5186 16.1135 14.0074 15.6247C14.4962 15.0815 14.4962 14.2668 14.0617 13.778L7.87008 7.09754C7.38126 6.55441 6.56657 6.55441 6.07775 7.04322C5.58893 7.53204 5.58894 8.40104 6.02344 8.88986ZM3.36211 7.91223L8.19595 13.072C6.45794 13.5065 4.6113 13.0176 3.30779 11.6055L1.51547 9.70455C0.59215 8.67261 0.0490203 7.31479 0.103333 5.95697C0.157646 4.54483 0.700776 3.24132 1.67841 2.26369C2.65604 1.28606 3.95955 0.797241 5.31737 0.797241C6.67519 0.851554 7.9787 1.39468 8.90202 2.42663L10.64 4.32758C11.9435 5.73971 12.3237 7.64066 11.8349 9.43299L7.00107 4.27327C6.02344 3.18701 4.39405 3.18701 3.36211 4.16464C2.43879 5.19659 2.38447 6.82597 3.36211 7.91223Z" fill="#6A5B40"/>
</svg>
